HIERARCHY
ROOT Hips
{
	OFFSET -3.958830 18.904000 13.208200
	CHANNELS 6 Xposition Yposition Zposition Zrotation Yrotation Xrotation 
	JOINT LHipJoint
	{
		OFFSET 0.000000 0.000000 0.000000
		CHANNELS 3 Zrotation Yrotation Xrotation
		JOINT LeftUpLeg
		{
			OFFSET 1.800000 -1.400000 0.085000
			CHANNELS 3 Zrotation Yrotation Xrotation
			JOINT LeftLeg
			{
				OFFSET 2.215000 -6.000000 0.000000
				CHANNELS 3 Zrotation Yrotation Xrotation
				JOINT LeftFoot
				{
					OFFSET 2.500000 -6.900000 0.000000
					CHANNELS 3 Zrotation Yrotation Xrotation
					JOINT LeftToeBase
					{
						OFFSET 0.200000 -0.500000 1.950000
						CHANNELS 3 Zrotation Yrotation Xrotation
						End Site
						{
							OFFSET 0.000000 0.000000 0.000000
						}
					}
				}
			}
		}
	}
	JOINT RHipJoint
	{
		OFFSET 0.000000 0.000000 0.000000
		CHANNELS 3 Zrotation Yrotation Xrotation
		JOINT RightUpLeg
		{
			OFFSET -1.800000 -1.400000 0.085000
			CHANNELS 3 Zrotation Yrotation Xrotation
			JOINT RightLeg
			{
				OFFSET -2.215000 -6.000000 0.000000
				CHANNELS 3 Zrotation Yrotation Xrotation
				JOINT RightFoot
				{
					OFFSET -2.500000 -6.900000 0.000000
					CHANNELS 3 Zrotation Yrotation Xrotation
					JOINT RightToeBase
					{
						OFFSET -0.200000 -0.500000 1.950000
						CHANNELS 3 Zrotation Yrotation Xrotation
						End Site
						{
							OFFSET 0.000000 0.000000 0.000000
						}
					}
				}
			}
		}
	}
	JOINT LowerBack
	{
		OFFSET 0.000000 0.000000 0.000000
		CHANNELS 3 Zrotation Yrotation Xrotation
		JOINT Spine
		{
			OFFSET -0.087000 1.940000 -0.288900
			CHANNELS 3 Zrotation Yrotation Xrotation
			JOINT Spine1
			{
				OFFSET 0.000000 1.950000 0.060000
				CHANNELS 3 Zrotation Yrotation Xrotation
				JOINT Neck
				{
					OFFSET 0.000000 0.000000 0.000000
					CHANNELS 3 Zrotation Yrotation Xrotation
					JOINT Neck1
					{
						OFFSET 0.000000 1.600000 0.340000
						CHANNELS 3 Zrotation Yrotation Xrotation
						JOINT Head
						{
							OFFSET 0.000000 1.667000 -0.240000
							CHANNELS 3 Zrotation Yrotation Xrotation
							End Site
							{
								OFFSET 0.000000 0.000000 0.000000
							}
						}
					}
				}
				JOINT LeftShoulder
				{
					OFFSET 0.000000 0.000000 0.000000
					CHANNELS 3 Zrotation Yrotation Xrotation
					JOINT LeftArm
					{
						OFFSET 2.700000 1.550000 -0.730000
						CHANNELS 3 Zrotation Yrotation Xrotation
						JOINT LeftForeArm
						{
							OFFSET 5.450000 0.000000 0.000000
							CHANNELS 3 Zrotation Yrotation Xrotation
							JOINT LeftHand
							{
								OFFSET 3.450000 0.000000 0.000000
								CHANNELS 3 Zrotation Yrotation Xrotation
								JOINT LeftHandIndex1
								{
									OFFSET 0.750000 0.000000 0.000000
									CHANNELS 3 Zrotation Yrotation Xrotation
									End Site
									{
										OFFSET 0.000000 0.000000 0.000000
									}
								}
							}
						}
					}
				}
				JOINT RightShoulder
				{
					OFFSET 0.000000 0.000000 0.000000
					CHANNELS 3 Zrotation Yrotation Xrotation
					JOINT RightArm
					{
						OFFSET -2.700000 1.550000 -0.730000
						CHANNELS 3 Zrotation Yrotation Xrotation
						JOINT RightForeArm
						{
							OFFSET -5.450000 0.000000 0.000000
							CHANNELS 3 Zrotation Yrotation Xrotation
							JOINT RightHand
							{
								OFFSET -3.450000 0.000000 0.000000
								CHANNELS 3 Zrotation Yrotation Xrotation
								JOINT RightHandIndex1
								{
									OFFSET -0.750000 0.000000 0.000000
									CHANNELS 3 Zrotation Yrotation Xrotation
									End Site
									{
										OFFSET 0.000000 0.000000 0.000000
									}
								}
							}
						}
					}
				}
			}
		}
	}
}
MOTION
Frames: 12
Frame Time: 0.016667
0.843730 17.173330 -1.625660 2.770042 -13.119498 4.576467 -14.986934 11.820785 4.665744 1.418280 -6.430006 -41.757281 -8.916279 5.050001 13.361313 -1.275966 3.699868 3.569211 0.136560 -0.381290 -0.089540 18.580401 -10.852817 2.054254 -8.140314 2.860776 -14.343689 6.103359 -6.985985 23.767446 -0.173021 -4.580905 3.191136 0.012200 0.858680 0.242660 -4.290197 -0.654727 -7.303242 13.947153 5.232092 8.590997 -1.530395 5.585760 11.328624 0.031024 -9.530170 -10.268903 -21.328995 13.932495 33.939741 -10.136700 10.785850 -3.245220 -10.363538 -3.205343 4.243529 -25.527847 2.339422 -2.491040 -10.398244 -27.956056 0.678648 -4.149220 2.699327 0.737640 0.583000 -0.440590 0.326110 9.952554 11.536106 5.975084 41.145054 10.412124 -10.520174 7.527407 67.520152 1.601528 1.161655 -1.533934 -0.653730 0.563310 0.355110 -0.365280 
0.864390 17.149280 -1.622130 2.523738 -12.283492 4.532611 -14.968927 11.791512 4.622641 1.622434 -6.402316 -41.515743 -8.772401 4.940608 12.963370 -1.333474 3.690412 3.583976 0.122350 -0.393850 -0.086120 18.605095 -10.844337 2.056896 -8.400555 2.665761 -13.545288 7.084688 -7.239864 22.832411 -0.170632 -4.629518 3.183027 0.032240 0.884070 0.219550 -4.360762 -0.626613 -7.264492 14.514349 4.791812 8.322078 -2.084816 5.187785 11.406306 -0.089689 -9.497602 -9.953944 -20.999829 14.270548 33.347671 -10.072150 11.136990 -3.744870 -10.313087 -2.797715 3.935012 -25.393232 1.822829 -2.358250 -9.375540 -28.076959 0.493855 -4.189091 2.645721 0.743320 0.602860 -0.464580 0.311640 10.034900 10.828127 5.730623 41.688704 10.555942 -10.100077 9.602427 66.984926 2.778442 1.153679 -1.527581 -0.696970 0.605180 0.375800 -0.384050 
0.889760 17.077540 -1.612710 2.002099 -11.614536 5.168441 -14.976094 11.694905 4.565521 2.815502 -6.166090 -41.871405 -8.752233 5.140154 13.522486 -1.458307 3.987214 3.537997 0.066610 -0.460100 -0.154080 18.631061 -10.781254 2.067116 -8.370353 2.370933 -12.493224 8.305415 -7.238655 20.204600 -0.091618 -4.652578 3.224685 0.096300 1.060540 0.189430 -4.406876 -0.560980 -7.162259 14.559743 4.741660 7.312771 -2.032794 5.028859 10.923759 -0.913616 -9.531248 -8.768701 -19.783967 14.634743 29.620655 -9.111660 11.419310 -2.367680 -10.487240 -1.264904 2.960353 -25.249917 0.503370 -1.849741 -7.625833 -28.972068 0.233430 -4.354017 2.598018 0.698830 0.740400 -0.607400 0.332770 11.661227 9.084542 4.972980 41.772372 10.324742 -8.884900 13.477359 65.623225 5.013934 1.079343 -1.576960 -0.834660 0.710190 0.440490 -0.403100 
0.921310 17.043090 -1.622790 0.891817 -11.933240 5.209585 -14.931178 11.667472 4.459018 4.974961 -5.377326 -41.552627 -9.073413 5.884714 16.002210 -1.435817 4.479182 3.352014 0.112440 -0.426740 -0.123680 18.684411 -10.835927 2.115498 -7.483780 2.147197 -11.505413 8.158372 -6.927217 18.561256 -0.102919 -4.581708 3.251903 0.135230 1.088990 0.216490 -4.553910 -0.327956 -7.108580 15.699246 5.113554 7.268410 -2.154740 5.460124 10.495934 -1.286757 -9.379850 -7.940310 -19.186917 14.719672 29.220500 -8.433450 11.215720 -2.500740 -10.760473 -0.006994 1.989673 -27.305825 -2.421257 -1.394238 -3.306887 -28.467290 -0.734857 -4.403047 2.571883 0.695870 0.764130 -0.615320 0.356770 12.400674 7.595253 4.498191 42.614726 10.081642 -8.261530 15.363080 63.435340 5.887663 1.078431 -1.611991 -0.840570 0.720580 0.424910 -0.404740 
0.964560 17.035660 -1.633160 -0.408837 -12.530179 5.464014 -14.886208 11.620140 4.407385 7.475077 -4.544162 -41.304487 -9.970106 7.299090 20.122367 -1.288411 5.306494 3.033214 0.109720 -0.406220 -0.184690 18.743296 -10.863246 2.160298 -6.483731 2.253246 -11.815339 7.971333 -6.744616 18.388942 -0.084114 -4.547659 3.280622 0.145670 1.138850 0.226710 -4.714328 -0.078347 -7.093010 17.154602 5.282358 7.209358 -2.264365 5.743312 9.523511 -1.668073 -9.669252 -7.444856 -19.591127 14.819168 28.671448 -7.178490 10.543090 -1.116880 -11.159032 0.978437 1.571178 -30.944130 -4.031619 -1.456037 1.483832 -28.775176 -1.891998 -4.437241 2.586171 0.634580 0.794370 -0.647310 0.390190 13.360252 6.832981 4.043976 43.258719 10.588126 -7.303583 15.323973 58.449484 5.491064 1.114388 -1.610104 -0.817150 0.714320 0.424370 -0.359510 
1.008960 17.064540 -1.651050 -1.384751 -13.179337 5.197533 -14.862434 11.662914 4.357446 9.382269 -3.867659 -40.212482 -10.845274 9.123778 25.099649 -1.097148 6.318716 2.657087 0.083660 -0.408740 -0.236480 18.755544 -10.853932 2.216821 -6.787571 2.853175 -13.138153 9.198220 -7.305622 20.358478 -0.102258 -4.707462 3.258084 0.125080 1.160670 0.189270 -4.770644 0.005836 -7.156150 17.766453 5.305302 7.937057 -2.086343 5.989137 8.521213 -1.702629 -9.825023 -7.354939 -20.079637 15.257988 29.533389 -6.392290 10.469380 -0.512030 -11.062273 1.635252 1.574349 -36.783955 -5.221819 -2.050184 7.903358 -29.811482 -3.680541 -4.417944 2.507229 0.630350 0.785270 -0.650290 0.413540 13.245825 6.491685 3.656096 44.866533 12.243249 -6.138479 14.113000 52.034586 4.401064 1.173554 -1.504052 -0.819840 0.748880 0.420840 -0.332130 
1.057520 17.109730 -1.673100 -1.825851 -13.357689 4.616998 -14.882555 11.747743 4.301764 10.426538 -3.583119 -38.820143 -11.108350 11.162115 30.980283 -0.821562 7.421395 2.201942 0.098860 -0.379870 -0.276580 18.726848 -10.713594 2.317956 -8.345643 4.177219 -16.181334 11.429517 -8.802680 25.491731 -0.203520 -5.290959 3.009599 0.092440 1.103040 0.195720 -4.706577 -0.160142 -7.274563 17.245840 4.920634 8.673490 -1.832056 5.794342 7.805189 -1.697373 -9.967769 -7.720284 -20.919351 15.894021 31.008011 -4.407210 9.781470 0.379530 -10.721977 1.478444 2.066915 -43.702517 -6.207113 -2.816378 14.758594 -29.885515 -5.778801 -4.349581 2.561397 0.617140 0.725620 -0.628990 0.409820 12.971850 6.920204 3.501371 47.787867 13.933667 -5.289419 11.142026 44.978592 2.507258 1.271931 -1.440797 -0.740370 0.671900 0.415990 -0.301450 
1.114520 17.183360 -1.709220 -2.140773 -12.633285 3.380995 -14.902938 11.861599 4.190031 11.154282 -3.354885 -36.454240 -11.675978 12.976620 35.289027 -0.556131 8.343462 1.863810 0.116530 -0.369820 -0.250440 18.689657 -10.512667 2.530549 -10.154906 5.458467 -19.091070 13.791927 -10.487325 29.909260 -0.379153 -5.943785 2.752300 0.045370 1.026960 0.189740 -4.618525 -0.437902 -7.496100 16.879600 4.089459 10.422215 -1.851380 5.323857 7.127729 -1.202842 -9.916527 -8.262781 -21.672039 15.907200 33.826924 -3.820280 9.134920 -0.007710 -12.397238 0.257502 2.503481 -48.305984 -6.020047 -4.466851 20.382999 -32.062665 -8.033348 -4.226402 2.513545 0.672590 0.639000 -0.553790 0.411170 13.743536 8.195457 3.658739 49.740922 14.761903 -5.123868 9.055248 39.532367 1.325586 1.375043 -1.333029 -0.694680 0.652300 0.384950 -0.293450 
1.175140 17.235580 -1.712620 -2.280097 -10.276255 2.295329 -14.963777 12.058271 3.977303 10.707097 -3.570263 -33.697456 -10.839210 13.814116 38.987083 -0.357610 8.917184 1.651037 0.095120 -0.388520 -0.290450 18.612740 -10.288475 2.750811 -12.491785 6.000243 -21.102257 16.788266 -12.427512 32.455963 -0.540406 -6.645936 2.496346 -0.009880 0.996030 0.214000 -4.404380 -0.919795 -7.645390 15.436582 3.093758 11.102064 -1.053102 4.282357 6.670429 -0.748288 -9.293684 -8.626285 -20.786257 15.984963 36.242272 -3.078710 9.068370 0.567950 -13.210935 -0.632340 3.003981 -53.609114 -6.052908 -5.963214 23.715691 -34.390270 -10.002770 -4.167472 2.519777 0.690510 0.609510 -0.520530 0.403980 13.938554 8.596119 3.598796 51.968617 15.108337 -4.915644 7.263430 35.008694 0.507055 1.437692 -1.268786 -0.646020 0.604390 0.402200 -0.278510 
1.231290 17.264200 -1.708670 -2.015518 -7.016971 1.059652 -15.056749 12.372693 3.704020 9.643507 -3.957524 -30.320017 -8.875212 13.653060 41.871997 -0.311142 9.218316 1.579869 0.039480 -0.478860 -0.283850 18.483110 -10.151691 2.911799 -15.289481 5.560306 -21.757036 19.685777 -14.080656 32.881842 -0.650256 -7.103379 2.337387 -0.058020 0.993520 0.180680 -4.064899 -1.516728 -7.742686 12.774797 1.988791 11.503756 0.159503 2.955962 6.590815 -0.330330 -8.242959 -8.902328 -18.891588 14.997356 39.070641 -3.250040 8.748200 0.180970 -13.497290 -1.577042 3.473604 -56.991208 -5.844046 -7.216917 20.700171 -37.351981 -10.159787 -4.118204 2.406701 0.779700 0.580700 -0.501020 0.381170 13.819879 8.744504 3.541258 54.633271 15.283724 -4.905389 6.356241 31.966116 0.084827 1.463838 -1.146402 -0.709830 0.662050 0.434340 -0.315150 
1.292450 17.274400 -1.716640 -1.825993 -5.011382 0.708034 -15.149547 12.647583 3.385602 8.976790 -3.740678 -27.002078 -7.058365 13.198015 43.065552 -0.207887 9.176833 1.612432 0.022970 -0.475790 -0.318450 18.373462 -10.041776 3.111500 -17.486166 5.302429 -23.837397 21.004117 -14.936911 33.469049 -0.691275 -7.373154 2.259480 -0.094470 0.978020 0.177180 -3.763331 -1.921730 -7.761350 10.038254 1.480699 10.968631 1.503422 2.075399 6.871755 -0.129454 -7.268200 -9.283923 -17.139108 13.872565 41.324065 -2.827350 8.035930 1.788150 -13.020790 -2.197581 4.101951 -59.958996 -5.439343 -8.245673 15.814310 -39.352005 -9.226680 -4.071065 2.456449 0.750460 0.575280 -0.491130 0.391800 13.395349 8.703833 3.688889 57.042033 14.489355 -5.583665 7.000082 31.968011 0.056904 1.493957 -1.156146 -0.665470 0.627650 0.416760 -0.287430 
1.369410 17.260470 -1.729800 -2.463449 -3.503873 0.642654 -15.107699 12.958388 2.974444 9.110187 -3.041376 -23.152515 -4.963735 11.879240 41.688460 -0.278578 8.684027 1.818715 -0.021000 -0.508230 -0.340980 18.379067 -10.127470 3.251536 -18.708923 4.798756 -25.284312 21.141806 -14.559765 32.068688 -0.604414 -7.134793 2.349462 -0.114240 1.012330 0.135870 -3.830812 -2.039051 -7.629026 10.411791 0.508433 10.487932 0.776493 1.043721 6.816731 -0.032361 -6.965807 -9.250694 -16.563252 13.454427 41.774485 -1.957690 7.265620 2.250800 -13.059346 -2.035874 4.000839 -61.256875 -5.945901 -7.846414 12.331324 -38.792410 -8.042216 -4.093353 2.401427 0.733420 0.579890 -0.508010 0.385000 13.247937 7.865219 3.717819 59.068591 13.746475 -6.362837 8.907673 34.662931 0.474040 1.494389 -1.126973 -0.686360 0.681190 0.429460 -0.271750 
